<svg id="instagram_1_" data-name="instagram (1)" xmlns="http://www.w3.org/2000/svg" width="61.284" height="61.284" viewBox="0 0 61.284 61.284">
  <g id="Сгруппировать_6" data-name="Сгруппировать 6" transform="translate(12.125 11.993)">
    <g id="Сгруппировать_5" data-name="Сгруппировать 5">
      <path id="Контур_5" data-name="Контур 5" d="M119.882,100.2a18.588,18.588,0,0,0-16.1,27.875.989.989,0,0,0,1.711-.99,16.628,16.628,0,1,1,2.326,3.114.989.989,0,0,0-1.435,1.359,18.415,18.415,0,0,0,13.495,5.807,18.583,18.583,0,1,0,0-37.166Z" transform="translate(-101.299 -100.198)"/>
    </g>
  </g>
  <g id="Сгруппировать_8" data-name="Сгруппировать 8" transform="translate(18.715 18.583)">
    <g id="Сгруппировать_7" data-name="Сгруппировать 7">
      <path id="Контур_6" data-name="Контур 6" d="M168.346,155.252a11.993,11.993,0,1,0,11.993,11.993A12.007,12.007,0,0,0,168.346,155.252Zm0,22.01a10.016,10.016,0,1,1,10.016-10.016A10.028,10.028,0,0,1,168.346,177.262Z" transform="translate(-156.353 -155.252)"/>
    </g>
  </g>
  <g id="Сгруппировать_10" data-name="Сгруппировать 10" transform="translate(43.229 9.357)">
    <g id="Сгруппировать_9" data-name="Сгруппировать 9">
      <path id="Контур_7" data-name="Контур 7" d="M365.5,78.176a4.349,4.349,0,1,0,4.349,4.349A4.354,4.354,0,0,0,365.5,78.176Zm0,6.722a2.372,2.372,0,1,1,2.372-2.372A2.375,2.375,0,0,1,365.5,84.9Z" transform="translate(-361.153 -78.176)"/>
    </g>
  </g>
  <g id="Сгруппировать_12" data-name="Сгруппировать 12">
    <g id="Сгруппировать_11" data-name="Сгруппировать 11">
      <path id="Контур_8" data-name="Контур 8" d="M47.644,0h-34A13.641,13.641,0,0,0,0,13.641v34A13.641,13.641,0,0,0,13.641,61.284h34A13.641,13.641,0,0,0,61.284,47.644v-34A13.641,13.641,0,0,0,47.644,0ZM59.307,47.644A11.664,11.664,0,0,1,47.644,59.307h-34A11.664,11.664,0,0,1,1.977,47.644v-34A11.664,11.664,0,0,1,13.641,1.977h34A11.664,11.664,0,0,1,59.307,13.641v34Z"/>
    </g>
  </g>
  <g id="Сгруппировать_14" data-name="Сгруппировать 14" transform="translate(4.613 4.613)">
    <g id="Сгруппировать_13" data-name="Сгруппировать 13">
      <path id="Контур_9" data-name="Контур 9" d="M81.173,38.538H47.961a9.423,9.423,0,0,0-9.423,9.423V81.173A9.423,9.423,0,0,0,47.961,90.6H81.173A9.423,9.423,0,0,0,90.6,81.173V47.961A9.423,9.423,0,0,0,81.173,38.538ZM88.62,81.173a7.446,7.446,0,0,1-7.446,7.446H47.961a7.446,7.446,0,0,1-7.446-7.446V47.961a7.446,7.446,0,0,1,7.446-7.446H81.173a7.446,7.446,0,0,1,7.446,7.446V81.173Z" transform="translate(-38.538 -38.538)"/>
    </g>
  </g>
</svg>
