<svg xmlns="http://www.w3.org/2000/svg" width="56.297" height="107.875" viewBox="0 0 56.297 107.875">
  <g id="left-arrow" transform="translate(-117.329)">
    <path id="Контур_1" data-name="Контур 1" d="M171.255,107.875a2.344,2.344,0,0,1-1.66-.685l-51.58-51.58a2.345,2.345,0,0,1,0-3.315L169.6.716a2.345,2.345,0,1,1,3.373,3.258l-.058.058-49.92,49.92,49.925,49.92a2.344,2.344,0,0,1-1.66,4Z" transform="translate(0 0)" fill="#fff"/>
    <path id="Контур_2" data-name="Контур 2" d="M171.255,107.875a2.344,2.344,0,0,1-1.66-.685l-51.58-51.58a2.345,2.345,0,0,1,0-3.315L169.6.716a2.345,2.345,0,1,1,3.373,3.258l-.058.058-49.92,49.92,49.925,49.92a2.344,2.344,0,0,1-1.66,4Z" transform="translate(0 0)" fill="#fff"/>
  </g>
</svg>
