<svg xmlns="http://www.w3.org/2000/svg" width="56.3" height="108.014" viewBox="0 0 56.3 108.014">
  <g id="right-arrow" transform="translate(-117.325 0)">
    <path id="Контур_3" data-name="Контур 3" d="M121.36.793a2.346,2.346,0,0,0-3.315,3.319L167.964,54.1l-49.923,49.983a2.346,2.346,0,0,0,3.258,3.377l.058-.058,51.578-51.645a2.35,2.35,0,0,0,0-3.319Z" transform="translate(0 -0.104)" fill="#fff"/>
    <path id="Контур_4" data-name="Контур 4" d="M119.8,107.987a2.348,2.348,0,0,1-1.66-4.01l49.923-49.983L118.136,4.012a2.349,2.349,0,1,1,3.32-3.324l51.578,51.645a2.35,2.35,0,0,1,0,3.319L121.456,107.3A2.342,2.342,0,0,1,119.8,107.987Z" transform="translate(-0.095 0)" fill="#fff"/>
  </g>
</svg>
