<svg id="telegram" xmlns="http://www.w3.org/2000/svg" width="61.284" height="61.284" viewBox="0 0 61.284 61.284">
  <g id="Сгруппировать_16" data-name="Сгруппировать 16" transform="translate(0 0)">
    <g id="Сгруппировать_15" data-name="Сгруппировать 15">
      <path id="Контур_10" data-name="Контур 10" d="M58.726,18.366a30.537,30.537,0,0,0-6.951-9.913.96.96,0,1,0-1.324,1.389A28.662,28.662,0,1,1,46.77,6.871a.96.96,0,1,0,1.079-1.587A30.644,30.644,0,0,0,8.975,52.309,30.649,30.649,0,0,0,58.726,18.366Z" transform="translate(0 0)" fill="#fff"/>
    </g>
  </g>
  <g id="Сгруппировать_18" data-name="Сгруппировать 18" transform="translate(10.676 12.906)">
    <g id="Сгруппировать_17" data-name="Сгруппировать 17">
      <path id="Контур_11" data-name="Контур 11" d="M123.082,107.914,104.628,116.5a.96.96,0,0,0,.81,1.74l11.384-5.3-5.534,4.48-12.7,10.281-6.947-3.039,9.734-4.531a.96.96,0,0,0-.81-1.74l-10.478,4.878a1.549,1.549,0,0,0,.033,2.823l7.757,3.393,2.272,13.63a.968.968,0,0,0,1.749.368l6.444-9.836,12.186,5.687a1.564,1.564,0,0,0,2.2-1.313l1.717-29.188c0-.027,0-.055,0-.082A.969.969,0,0,0,123.082,107.914ZM101.26,138.122l-1.485-8.909L114.9,116.969l-11.577,12.98a.969.969,0,0,0-.217.416Zm2.039-.275,1.4-5.892,1.882.878Zm4.348-6.636-2.031-.948,9.991-11.2-1.445,2.206Zm13.2,6.159L109.4,132.031l12.915-19.712Z" transform="translate(-89.192 -107.827)" fill="#fff"/>
    </g>
  </g>
</svg>
