<svg id="viber" xmlns="http://www.w3.org/2000/svg" width="55.151" height="61.285" viewBox="0 0 55.151 61.285">
  <g id="Сгруппировать_20" data-name="Сгруппировать 20" transform="translate(0)">
    <g id="Сгруппировать_19" data-name="Сгруппировать 19" transform="translate(0)">
      <path id="Контур_12" data-name="Контур 12" d="M74.648,6.43a.96.96,0,1,0-1.37,1.344,19.4,19.4,0,0,1,5.578,13.659v9.213A19.536,19.536,0,0,1,59.341,50.16H48.081a.961.961,0,0,0-.679.281l-7.575,7.575v-8.6a.96.96,0,0,0-.575-.879A19.522,19.522,0,0,1,27.543,30.646V21.433A19.536,19.536,0,0,1,47.057,1.919H59.341A19.43,19.43,0,0,1,70.074,5.133a.96.96,0,0,0,1.057-1.6A21.345,21.345,0,0,0,59.341,0H47.057A21.458,21.458,0,0,0,25.624,21.433v9.213A21.442,21.442,0,0,0,37.908,50.032v10.3a.968.968,0,0,0,1.638.679l8.932-8.932H59.341A21.458,21.458,0,0,0,80.775,30.646V21.433A21.312,21.312,0,0,0,74.648,6.43Z" transform="translate(-25.624 0)" fill="#fff"/>
    </g>
  </g>
  <g id="Сгруппировать_22" data-name="Сгруппировать 22" transform="translate(10.239 11.144)">
    <g id="Сгруппировать_21" data-name="Сгруппировать 21" transform="translate(0)">
      <path id="Контур_13" data-name="Контур 13" d="M143.89,120.059l-.92-4.986a.96.96,0,0,0-.756-.767l-7.238-1.448a.96.96,0,0,0-.867.262l-2.972,2.972c-5.009-2.236-7.777-5.01-10.215-10.233l2.963-2.963a.961.961,0,0,0,.262-.867L122.7,94.792a.96.96,0,0,0-.767-.756l-4.986-.92a.955.955,0,0,0-.387.008,7.081,7.081,0,0,0-3.443,1.9c-1.64,1.64-2.267,4.037-1.812,6.931a32.826,32.826,0,0,0,.916,4.057.96.96,0,0,0,1.843-.537,30.875,30.875,0,0,1-.863-3.818c-.361-2.295.067-4.07,1.273-5.275a5.164,5.164,0,0,1,2.327-1.342l4.143.765,1.219,6.1-3.071,3.071a.96.96,0,0,0-.2,1.07c2.792,6.252,6.067,9.524,12.083,12.074a.96.96,0,0,0,1.053-.205l3.071-3.071,6.1,1.219.765,4.143a5.167,5.167,0,0,1-1.342,2.327c-1.206,1.205-2.981,1.634-5.276,1.272-4.587-.722-10.951-2.949-15.052-7.034l-.059-.059a24.11,24.11,0,0,1-4.863-7.555.96.96,0,0,0-1.767.75,26.046,26.046,0,0,0,5.273,8.163l.059.059c4.428,4.41,11.225,6.8,16.11,7.572a11.4,11.4,0,0,0,1.769.144,6.868,6.868,0,0,0,7.063-5.4A.953.953,0,0,0,143.89,120.059Z" transform="translate(-111.161 -93.1)" fill="#fff"/>
    </g>
  </g>
  <g id="Сгруппировать_24" data-name="Сгруппировать 24" transform="translate(28.663 17.402)">
    <g id="Сгруппировать_23" data-name="Сгруппировать 23">
      <path id="Контур_14" data-name="Контур 14" d="M266.046,145.388a.96.96,0,0,0,0,1.919,4.163,4.163,0,0,1,4.159,4.159.96.96,0,1,0,1.919,0A6.085,6.085,0,0,0,266.046,145.388Z" transform="translate(-265.086 -145.388)" fill="#fff"/>
    </g>
  </g>
  <g id="Сгруппировать_26" data-name="Сгруппировать 26" transform="translate(27.639 13.308)">
    <g id="Сгруппировать_25" data-name="Сгруппировать 25">
      <path id="Контур_15" data-name="Контур 15" d="M258.516,111.179a10.356,10.356,0,0,0-1.129.062.96.96,0,1,0,.211,1.908,8.391,8.391,0,0,1,.918-.051,8.263,8.263,0,0,1,8.253,8.253,8.382,8.382,0,0,1-.051.918.96.96,0,0,0,1.908.211,10.358,10.358,0,0,0,.062-1.129A10.184,10.184,0,0,0,258.516,111.179Z" transform="translate(-256.532 -111.179)" fill="#fff"/>
    </g>
  </g>
  <g id="Сгруппировать_28" data-name="Сгруппировать 28" transform="translate(27.639 9.213)">
    <g id="Сгруппировать_27" data-name="Сгруппировать 27">
      <path id="Контур_16" data-name="Контур 16" d="M258.518,76.97c-.364,0-.733.014-1.1.041a.96.96,0,0,0,.145,1.914c.315-.024.635-.036.951-.036a12.36,12.36,0,0,1,12.018,15.2.96.96,0,0,0,1.868.441A14.279,14.279,0,0,0,258.518,76.97Z" transform="translate(-256.535 -76.97)" fill="#fff"/>
    </g>
  </g>
</svg>
